<?xml version="1.0" encoding="UTF-8" standalone="no"?>
<svg
   width="16"
   height="16"
   fill="currentColor"
   class="bi bi-gear-wide"
   viewBox="0 0 16 16"
   version="1.1"
   id="svg1"
   sodipodi:docname="gear-wide.svg"
   inkscape:version="1.3.2 (091e20e, 2023-11-25)"
   xmlns:inkscape="http://www.inkscape.org/namespaces/inkscape"
   xmlns:sodipodi="http://sodipodi.sourceforge.net/DTD/sodipodi-0.dtd"
   xmlns="http://www.w3.org/2000/svg"
   xmlns:svg="http://www.w3.org/2000/svg">
  <defs
     id="defs1" />
  <sodipodi:namedview
     id="namedview1"
     pagecolor="#ffffff"
     bordercolor="#000000"
     borderopacity="0.25"
     inkscape:showpageshadow="2"
     inkscape:pageopacity="0.0"
     inkscape:pagecheckerboard="0"
     inkscape:deskcolor="#d1d1d1"
     inkscape:zoom="45.25"
     inkscape:cx="8"
     inkscape:cy="8"
     inkscape:window-width="1920"
     inkscape:window-height="1043"
     inkscape:window-x="1920"
     inkscape:window-y="0"
     inkscape:window-maximized="1"
     inkscape:current-layer="svg1" />
  <path
     d="M8.932.727c-.243-.97-1.62-.97-1.864 0l-.071.286a.96.96 0 0 1-1.622.434l-.205-.211c-.695-.719-1.888-.03-1.613.931l.08.284a.96.96 0 0 1-1.186 1.187l-.284-.081c-.96-.275-1.65.918-.931 1.613l.211.205a.96.96 0 0 1-.434 1.622l-.286.071c-.97.243-.97 1.62 0 1.864l.286.071a.96.96 0 0 1 .434 1.622l-.211.205c-.719.695-.03 1.888.931 1.613l.284-.08a.96.96 0 0 1 1.187 1.187l-.081.283c-.275.96.918 1.65 1.613.931l.205-.211a.96.96 0 0 1 1.622.434l.071.286c.243.97 1.62.97 1.864 0l.071-.286a.96.96 0 0 1 1.622-.434l.205.211c.695.719 1.888.03 1.613-.931l-.08-.284a.96.96 0 0 1 1.187-1.187l.283.081c.96.275 1.65-.918.931-1.613l-.211-.205a.96.96 0 0 1 .434-1.622l.286-.071c.97-.243.97-1.62 0-1.864l-.286-.071a.96.96 0 0 1-.434-1.622l.211-.205c.719-.695.03-1.888-.931-1.613l-.284.08a.96.96 0 0 1-1.187-1.186l.081-.284c.275-.96-.918-1.65-1.613-.931l-.205.211a.96.96 0 0 1-1.622-.434zM8 12.997a4.998 4.998 0 1 1 0-9.995 4.998 4.998 0 0 1 0 9.996z"
     id="path1"
     style="fill:#6c5353" />
</svg>
